<?xml version="1.0" encoding="utf-8"?>
<!-- Generator: Adobe Illustrator 23.0.6, SVG Export Plug-In . SVG Version: 6.00 Build 0)  -->
<svg version="1.1" id="Layer_1" xmlns="http://www.w3.org/2000/svg" xmlns:xlink="http://www.w3.org/1999/xlink" x="0px" y="0px"
	 viewBox="0 0 512 512" style="enable-background:new 0 0 512 512;" xml:space="preserve">
<style type="text/css">
	.st0{fill-rule:evenodd;clip-rule:evenodd;fill:#2E3191;stroke:#231F20;stroke-width:0.5;stroke-miterlimit:2.6131;}
	.st1{fill-rule:evenodd;clip-rule:evenodd;fill:#FFFFFF;}
	.st2{fill:#FFFFFF;}
	.st3{fill-rule:evenodd;clip-rule:evenodd;fill:#FFFFFF;stroke:#231F20;stroke-width:0.5;stroke-miterlimit:2.6131;}
	.st4{fill-rule:evenodd;clip-rule:evenodd;fill:#EC1C24;}
</style>
<g>
	
		<ellipse transform="matrix(0.7071 -0.7071 0.7071 0.7071 -106.4471 255.96)" class="st0" cx="255.7" cy="256.5" rx="245.3" ry="245.3"/>
	<path class="st1" d="M70.2,194l8.5,2.2c0.4,0.3,0.7,0.5,0.9,0.8c0.7,0.7,1.2,1.6,1.6,2.8c0.4,1.1,0.7,2.4,0.7,3.8
		c0,0.4,0,1-0.1,1.9l11.9-7l1.5,4l-15.5,8.7l-2.7,1.3c-1.3,0.6-2.4,0.8-3.5,0.5c-1.3-0.4-1.9-1.4-1.8-3c0.1-1,0.5-1.9,1.3-2.6
		c0.3-0.2,0.7-0.5,1.2-0.7c0.1-0.3,0.2-0.7,0.3-1.1c0.1-0.4,0.1-0.8-0.1-1.3c-0.1-0.4-0.4-0.8-0.7-1.1c-0.1-0.1-0.3-0.2-0.5-0.4
		l-5.4-1.4l-3,11.4l-7.6,2.9c9.7-40.2,29-78.8,59.8-106.5c-0.3-0.2-0.5-0.4-0.8-0.5c-1.9-1.2-3.5-1.9-4.8-2.3
		c-3.5-1-6.3-0.5-8.5,1.6c-0.5,0.5-1.1,1.2-1.7,1.9c-0.6,0.8-0.9,1.7-1,2.8c0,1.1,0.4,2.1,1.2,3c0.2,0.2,0.4,0.4,0.5,0.6
		c0.5,0.6,1.3,1,2.2,1.4c0.3,0.1,0.7,0.2,1.2,0.3l-2.1,2c-0.6-0.1-1.1-0.3-1.4-0.4c-1.3-0.4-2.3-0.9-3.1-1.5c-0.8-0.6-1.5-1.1-2-1.7
		c-1.3-1.4-2-2.9-2.2-4.7c-0.2-1.7,0.4-3.5,1.8-5.2c0.6-0.7,1.1-1.2,1.4-1.5c2.3-2.1,5-3.1,8.3-3.1c2.5,0.1,5.3,0.9,8.2,2.3
		c1.4,0.7,3,1.5,4.8,2.6c0.2,0.1-0.2-0.1,0.2,0.1c12.7-11.6,26.5-21.3,43.1-30.1l8,3.5l-8.7,4.5l13.1,23.7l-8.7,0.1l-2.5-4.4
		c-0.5,0.7-0.9,1.3-1.3,1.8c-1.4,1.7-2.9,3.1-4.5,4.3c-1.7,1.2-3.5,2-5.1,2.5c-2.2,0.6-4.4,0.6-6.6,0c-1.6-0.4-3.5-1.3-5.6-2.7
		c-0.7-0.5-1.6-1.2-2.7-2c0.7-0.8,1.2-1.4,1.7-1.8c1.1-1.3,2.3-2.8,3.5-4.5c0.5-0.7,0.7-1.2,0.8-1.7c0.1-0.5,0-0.9-0.2-1.2
		c-0.5-0.8-1.5-1-2.4-1c-5.7,4.4-10.2,7.8-15.8,12.7l18.5,19.9l-8.5,2.2l-15.7-16.9l-9.3,9.6l3.8,3.2c0.5,0.4,0.6,0.9,0.7,1.3
		c0.4,1.2,0.2,2.7-0.5,4.4c-1.5,3.6-3,7.3-4.4,10.9c-0.4,1.5-0.1,2.8,0.9,3.6c1,0.9,2.4,1.1,4.1,0.7c1.7-0.4,3.3-1.5,4.9-3.3
		c0.4-0.4,0.6-0.8,0.8-1.1c1.6-2.2,2.6-4.7,3.3-7.5c0.2-0.9,0.3-2.1,0.4-3.6l6.6,0.8c-0.2,1.4-0.4,2.5-0.7,3.4c-0.7,2.6-1.8,5-3.2,7
		c-0.2,0.3-0.6,0.8-1.1,1.4l17.4-1.9l-0.5,3.5l-11.9,1.6l-2.8,14.3l-6.3,0.8l3-17.1c-2.7,2.8-5.8,4.6-9.4,5.5
		c-2.4,0.6-4.5,0.7-6.2,0.2l1.5,0.8c0,0.2-0.1,0.4-0.2,0.6c-0.4,1.2-0.8,2.3-1.5,3.3c-0.6,1.1-1.3,2-1.9,2.8
		c-0.6,0.7-1.5,1.6-2.7,2.6c-2.1,1.7-4.6,3.1-7.4,4c-0.9,0.3-2.1,0.6-3.6,0.9l-10-5.8c-2,3.4-3.5,6.6-5.4,10.4l24.7,12l-7.1,5.1
		L75.6,180L70.2,194L70.2,194z M159.7,96.4l-4.3-7.8c-3.4,1.9-6.7,4-10.3,6.5c0.8,0.2,1.3,0.4,1.7,0.6c1.4,0.6,2.4,1.3,2.9,2.1
		c0.3,0.5,0.5,1,0.6,1.5c0.2,1.3-0.6,3.2-2.2,5.6c-0.5,0.8-1.4,1.8-2.6,3.2c0.4,0.3,0.7,0.5,1,0.6
		C152.1,110.7,160.5,101.6,159.7,96.4L159.7,96.4z M88.3,155.4l14.6-6.1l4,2.3c-1.8-1.7-2.7-3.8-2.5-6.4c0.1-2.2,0.9-4.5,2.5-7.2
		c1-1.8,1.5-3.1,1.6-4c0-0.3,0-0.5-0.1-0.8l-2.8-2.3C98.6,140,94.3,145.5,88.3,155.4L88.3,155.4z M105.6,151.5l-14.2,6.3l7.6,4.4
		c1,0.4,1.7,0.5,2.2,0.4c1-0.2,1.7-0.7,2.3-1.7c0.8-1.3,1.4-3.3,1.8-5.9C105.5,154.2,105.6,153,105.6,151.5z"/>
	<path class="st1" d="M309.7,68.5l-8.6-2.3L295.4,93l-6.7-5.7l4.9-22.8c-4.6-1-8.1-1.6-12.9-2.1l-2.9,27.5l-7.2-5.2l0.6-6.1
		c-0.9,0.9-1.7,1.5-2.4,2c-2.4,1.5-4.9,2.2-7.7,2.1c-3-0.1-5.7-1.1-8-2.8c-2.4-1.8-3.8-4-4.3-6.7c0-0.3-0.1-0.7,0-1.2
		c0.1-2.3,1.3-4.2,3.5-5.7c2.3-1.6,5-2.3,8.1-2.2c3.8,0.1,6.8,1.1,9.1,3c0.7,0.6,1.5,1.6,2.3,2.8l-0.1,1.9c-0.8-0.5-1.5-0.9-2-1.2
		c-1.8-0.8-3.6-1.2-5.6-1.3c-1.4,0-2.9,0.1-4.7,0.5c-1.7,0.4-3.2,1.1-4.4,2.1c-1.2,1-1.8,2-1.8,3.1c0,0.2,0,0.5,0.1,0.7
		c0.1,0.3,0.2,0.5,0.4,0.7c0.6,0.7,1.9,1.1,3.8,1.2c1.2,0,2.3,0,3.6-0.2c1.2-0.2,2.3-0.5,3.2-0.9c2.2-0.9,4-1.9,5.6-2.9
		c0.5-0.3,1-0.7,1.6-1.2l-0.1,1.8l1.3-12.4c-11.4-1.2-22.7-1.2-34.2,0l2.8,26.7l-8.1-3.3l-1-9.8c-3.4,2.6-8.8,3.8-12.9,2.5
		c-0.5-0.2-1.2-0.4-2-0.8c0,0.1,0,0.2,0,0.2c-0.2,0.5-0.8,1.2-1.8,1.9c-0.6,0.6-1.4,1.2-2.4,1.8c-0.2,0.1-0.4,0.2-0.6,0.4l11.8,7.2
		l-2.8,3.2l-15-9.6l-2.5-1.8c-1.1-0.8-1.8-1.8-2.1-2.9c-0.3-1.3,0.3-2.3,1.8-3c1-0.4,1.9-0.4,2.9,0c0.3,0.1,0.7,0.4,1.2,0.7
		c0.3-0.1,0.5-0.2,0.8-0.3c0.3-0.1,0.6-0.3,1-0.7c0.4-0.3,0.5-0.6,0.5-0.9s0-0.4-0.1-0.5l-1.5-6.3l-11.4,3.2l-5.2-5.2
		c16.3-5.2,27-7.6,41.3-9.1l-3.1-4.2c-0.5-0.7-1-1.2-1.4-1.6c-1.2-1.2-2.4-2-3.6-2.4c-0.8-0.3-1.5-0.4-2.1-0.5
		c-0.6-0.1-1.1-0.1-1.8,0c-0.2,0-0.3,0-0.5,0c-0.1,0-0.3,0-0.4,0l-2.2-5.8c0.6-0.1,1-0.1,1.4-0.2c1.4-0.1,2.6,0,3.8,0.4
		c1.1,0.3,2.2,0.8,3.2,1.4c1.6,1.2,3.3,3,5.1,5.5c0.6,0.8,1.2,2,2.1,3.4l2.4,3.7c25.8-2.4,47.3-0.1,70.6,5.7L309.7,68.5L309.7,68.5z
		 M231.7,67.9l-0.6-5.6l-14.6,2.4l2.1,8.9c0.4,0.1,0.8,0.1,1,0.1C224.7,73.9,230.3,72.5,231.7,67.9z"/>
	<path class="st1" d="M406.2,146.9l-7.5-8.3c0,0.5,0,0.9,0,1.2c-0.1,1.1-0.3,2-0.5,2.7c-0.3,0.7-0.5,1.2-0.7,1.5
		c-0.2,0.3-0.5,0.7-0.9,1c-0.9,0.8-1.9,1.3-3,1.3c-1.3,0-2.8-0.4-4.4-1.3c-0.8-0.5-1.5-1-2.2-1.8c-2.5-2.8-3.5-6.3-3-10.7
		c0.2-2.4,0.8-4.9,1.8-7.7c0.3-0.9,0.8-2,1.4-3.4l3,1.7c-0.3,0.6-0.5,1.1-0.7,1.5c-1.1,2.5-1.7,4.8-1.9,7c-0.1,1.2,0,2.3,0.4,3.2
		c0.3,0.9,0.8,1.7,1.4,2.4c0.5,0.6,1.1,1,1.7,1.3c0.6,0.3,1.2,0.4,1.7,0.4c0.5,0,1.1-0.2,1.5-0.7c0.7-0.6,1.2-1.7,1.6-3.3
		c0.2-0.7,0.4-2,0.6-4c0.1-0.5,0.2-0.9,0.5-1.1c0.5-0.5,1.1-0.4,1.6,0.3l11.7,13L406.2,146.9z"/>
	<path class="st1" d="M426,183.8l-5.9-10.2c-0.3-0.2-0.6-0.4-0.8-0.4c-0.8-0.2-1.6-0.1-2.5,0.4c-0.5,0.4-1.2,0.5-1.9,0.1
		c-0.7-0.4-1.3-0.9-1.8-1.7c-0.4-0.7-0.7-1.4-0.7-2c0-1,0.4-2.4,1.2-4.3c0.9-2.1,1.8-3.4,2.7-3.9c1-0.6,1.9-0.4,2.9,0.3
		c0.3,0.2,0.7,0.7,1.3,1.4l10.1,17.6L426,183.8z"/>
	<path class="st1" d="M447.5,217.4l-2.1-8.8l-25.8,8.4l1.6-8.4l22.4-7.4c-1.3-4.8-2.4-7.9-4.4-12.8l-24.6,10.7l0.8-8.7l21-8.9
		c-4.6-10.9-10.1-21.8-16.9-31.9L397,164.7l-0.9-8.7l19-12.8c-8.3-12.3-19.3-24-30.4-33.7l-17.8,20.4l-3.1-8.2l15-17.3
		c-4-3.1-6.5-5.3-10.9-8.1l-15.1,23.2l-4.2-7.7l3.6-5.6c-1.1-0.1-2-0.2-2.7-0.3c-2.1-0.4-4.1-1.1-5.9-2c-1.9-1-3.4-2.1-4.6-3.4
		c-1.5-1.7-2.6-3.6-3-5.8c-0.4-1.6-0.5-3.7-0.2-6.2c0.1-0.8,0.3-1.9,0.5-3.3c1,0.2,1.8,0.4,2.4,0.6c1.6,0.4,3.5,0.7,5.6,1
		c0.8,0.1,1.4,0.1,1.9-0.1c0.5-0.2,0.8-0.4,1-0.8c0.3-0.5,0.3-1.2,0-2.1c0-0.1-0.1-0.1-0.2-0.3l-9.8-4.9l-0.5-7.5
		c20.1,9.4,34.9,18.1,50.3,31.6l1.2-5.6c0.2-0.9,0.2-1.6,0.2-2.1c0-1.7-0.2-3.1-0.7-4.3c-0.4-0.8-0.7-1.4-1-1.9
		c-0.3-0.5-0.7-0.9-1.2-1.4c-0.1-0.1-0.2-0.2-0.3-0.3c-0.1-0.1-0.2-0.2-0.3-0.3l2.8-5.5c0.4,0.4,0.8,0.7,1,0.9c1,1,1.8,2,2.3,3.1
		c0.5,1.1,0.9,2.2,1.1,3.3c0.2,2,0,4.5-0.7,7.4c-0.2,1-0.7,2.2-1.1,3.9l-1.2,4.6c36.2,32.3,54.3,68,63.9,107L447.5,217.4
		L447.5,217.4z M361.5,92.1c-4.1-2.7-6-4.2-10.6-6.6c0.2,0.8,0.3,1,0.3,1.4c0.1,1.5,0,2.7-0.5,3.6c-0.3,0.5-0.6,0.9-1,1.3
		c-1.1,0.8-3.1,1-6,0.7c-0.9-0.1-2.3-0.4-4.1-0.8c-0.1,0.5-0.1,0.8-0.1,1.1c0.3,2,1.9,3.7,4.8,5.2c3.7,1.9,8.3,2.3,12.3,1.4
		C356.1,100.5,355.9,100.7,361.5,92.1z"/>
	<path class="st2" d="M54.3,287.9 M54.9,290.5l34.3-7.9l1.8,7.7l-19.8,11c3.5-1.1,6.5-2,9.1-2.7c2.6-0.7,4.7-1.3,6.5-1.7l5.4-1.2
		l1.5,6.6l-34.3,7.9l-1.8-7.7L78,291.3c-2.8,0.9-5.5,1.8-8.1,2.5c-2.6,0.8-5.2,1.4-7.7,2l-5.8,1.3L54.9,290.5z"/>
	<path class="st2" d="M60.8,316.1 M76.5,320.4l1.6,4.1l13.6-7.5L76.5,320.4L76.5,320.4z M60.9,316.3l35.4-6l3.2,8.4l-30.4,19.2
		l-2.7-7.1l6-3.3l-2.1-5.6l-6.6,1.5L60.9,316.3z"/>
	<path class="st2" d="M70,340 M73.1,345.8l25.1-13.3l-2.8-5.3l6-3.2l9.4,17.7l-6,3.2l-3-5.6l-25.1,13.3L73.1,345.8z"/>
	<path class="st2" d="M81.5,361.5 M82.9,363.8l29.9-18.7l4,6.4l-29.9,18.7L82.9,363.8z"/>
	<path class="st2" d="M90.4,375.1 M111.5,379.2l5.1-3.8c3.1-2.3,4.9-4,5.4-4.9c0.5-0.9,0.3-1.9-0.4-2.8c-0.7-0.9-1.6-1.3-2.6-1.1
		c-1,0.2-3.1,1.5-6.2,3.8l-5.1,3.8c-3,2.3-4.8,3.9-5.3,4.9c-0.5,0.9-0.4,1.9,0.3,2.8c0.7,0.9,1.6,1.3,2.6,1.1
		C106.4,382.7,108.4,381.5,111.5,379.2L111.5,379.2z M105.7,366.1c3.4-2.6,5.9-4.3,7.7-5.3c1.7-1,3.2-1.5,4.5-1.6
		c1.8-0.2,3.5,0.1,5,0.8c1.5,0.7,2.9,2,4.2,3.6c1.3,1.7,2.1,3.3,2.3,5c0.3,1.6,0.1,3.3-0.6,5c-0.5,1.2-1.4,2.5-2.8,3.9
		c-1.4,1.4-3.8,3.4-7.1,5.9c-3.4,2.5-5.9,4.3-7.6,5.2c-1.7,1-3.2,1.5-4.5,1.6c-1.8,0.2-3.4-0.1-4.9-0.8c-1.5-0.7-2.9-1.9-4.2-3.6
		c-1.3-1.7-2-3.3-2.3-5c-0.3-1.7-0.1-3.3,0.6-5c0.5-1.2,1.4-2.5,2.8-3.9C99.9,370.6,102.3,368.6,105.7,366.1z"/>
	<path class="st2" d="M109.2,397.2 M111,399l24.5-25.4l5.7,5.5l-10.6,20c2.4-2.8,4.4-5.2,6.2-7.2c1.7-2,3.3-3.6,4.5-5l3.8-4l4.9,4.7
		L125.6,413l-5.7-5.5l11-20.5c-1.8,2.3-3.6,4.5-5.4,6.5c-1.8,2.1-3.6,4-5.4,5.9l-4.1,4.3L111,399z"/>
	<path class="st2" d="M130.3,416.8 M145.7,411.6l3.6,2.5l7-13.8L145.7,411.6L145.7,411.6z M130.5,417l26-24.8l7.4,5.2l-14.5,32.9
		l-6.2-4.3l3.1-6.1l-4.9-3.4l-4.6,5L130.5,417z"/>
	<path class="st2" d="M153.1,431.8 M170,441.2l-14.6-8.1l17.1-30.8l6.6,3.7l-13.6,24.6l8,4.4L170,441.2z"/>
	<path class="st2" d="M184.6,446.8 M190,436.1l6.6,2.3l-0.3,1c-0.6,1.8-0.9,3.2-0.7,4.1c0.1,0.9,0.7,1.5,1.6,1.8
		c0.8,0.3,1.5,0.2,2.1-0.2c0.6-0.4,1.1-1.1,1.5-2.1c0.6-1.6,0-3.5-1.6-5.8c-0.3-0.4-0.5-0.7-0.6-0.9c-0.1-0.1-0.1-0.2-0.3-0.4
		c-2.1-3.1-3.4-5.3-3.7-6.6c-0.2-1-0.3-2-0.2-3.1c0.1-1.1,0.3-2.3,0.7-3.5c1-2.9,2.6-4.9,4.7-6.1c2.1-1.1,4.5-1.2,7.3-0.3
		c3,1,4.9,2.6,5.9,4.8c1,2.2,1,4.8-0.1,7.9c0,0.1-0.1,0.3-0.2,0.5c-0.1,0.2-0.2,0.4-0.2,0.5l-6.4-2.2l0.1-0.4
		c0.5-1.5,0.7-2.6,0.5-3.5c-0.2-0.9-0.6-1.5-1.4-1.8c-0.7-0.2-1.3-0.2-1.9,0.2c-0.6,0.4-1,1-1.3,1.9c-0.5,1.4,0.2,3.3,2,5.7
		c0.3,0.4,0.6,0.8,0.7,1c0.2,0.2,0.3,0.5,0.6,0.8c1.9,2.6,3,4.6,3.3,6c0.2,0.9,0.2,1.9,0.1,3c-0.1,1.1-0.4,2.2-0.7,3.3
		c-1.1,3.3-2.8,5.6-5,6.9c-2.2,1.3-4.8,1.4-7.7,0.4c-3.1-1.1-5.1-2.7-6.1-5c-1-2.3-0.9-5.1,0.3-8.5c0.1-0.2,0.2-0.4,0.2-0.7
		C189.7,437,189.8,436.6,190,436.1z"/>
	<path class="st2" d="M209.3,454.8 M211.9,455.3l6.1-34.7l17.3,3.1l-1.2,6.7l-9.9-1.8l-1.1,6.4l9.2,1.6l-1.2,7l-9.2-1.6l-1.3,7.6
		l9.9,1.8l-1.2,7.1L211.9,455.3z"/>
	<path class="st2" d="M234.6,459.5 M245.1,439.1c0.1,0,0.3,0,0.5,0c0.2,0,0.3,0,0.5,0c1.6,0,2.7-0.3,3.4-1c0.7-0.7,1-1.8,1-3.5
		c0-1.5-0.3-2.6-0.9-3.2c-0.6-0.6-1.7-1-3.3-1c-0.1,0-0.3,0-0.5,0c-0.2,0-0.4,0-0.5,0L245.1,439.1L245.1,439.1z M237.2,459.5
		l0.6-35.2l8.5,0.1c2.8,0,4.8,0.2,6.1,0.5c1.3,0.3,2.3,0.8,3,1.5c0.9,0.8,1.6,1.9,2,3.1c0.4,1.2,0.6,2.7,0.6,4.3
		c0,2-0.4,3.7-1.1,5.1c-0.7,1.4-1.7,2.5-3.1,3.3c2.3,1.2,3.5,3.9,3.6,8.1c0,0.1,0,0.1,0,0.1c0,0.4,0,1.1,0,1.9c0,4,0.5,6.5,1.7,7.5
		l-8.8-0.2c-0.2-0.7-0.3-1.5-0.4-2.3c-0.1-0.8-0.1-1.7-0.1-2.6c0-0.6,0-1.2,0.1-2c0-0.8,0.1-1.3,0.1-1.6c0-2.2-0.2-3.6-0.7-4.4
		c-0.5-0.8-1.4-1.2-2.8-1.2l-1.6,0l-0.2,14.1L237.2,459.5z"/>
	<path class="st2" d="M263.2,460 M270.8,459.3l-10.3-34.5l8-0.7l4.4,18.2c0.2,0.8,0.4,1.9,0.7,3.2c0.3,1.3,0.6,2.8,0.9,4.3l0-0.4
		c0.1-3.7,0.1-6.1,0.2-7.2l1.2-18.7l8-0.7l-4.3,35.8L270.8,459.3z"/>
	<path class="st2" d="M290.8,457.2 M293.3,456.5l-8.5-34.2l7.3-1.8l8.5,34.2L293.3,456.5z"/>
	<path class="st2" d="M306.6,453.9 M317.2,435.8l7-2.4c0.1,0.2,0.2,0.4,0.3,0.6c0.1,0.2,0.2,0.6,0.4,1c1.4,4.1,1.6,7.4,0.7,9.9
		c-1,2.5-3.1,4.4-6.5,5.5c-2,0.7-3.8,0.9-5.5,0.7c-1.7-0.2-3.2-0.9-4.6-2.1c-1-0.8-1.9-2.1-2.8-3.9c-0.9-1.8-2-4.6-3.4-8.6
		c-1.4-4-2.3-7-2.6-8.9c-0.4-1.9-0.4-3.5-0.2-4.8c0.4-1.7,1.1-3.2,2.3-4.4c1.2-1.2,2.7-2.2,4.7-2.8c3.3-1.2,6.2-1,8.6,0.4
		c2.4,1.4,4.3,4.2,5.7,8.2l0.1,0.3l-7,2.4c-0.8-2.3-1.6-3.8-2.4-4.5c-0.8-0.8-1.7-1-2.7-0.6c-1.1,0.4-1.7,1.2-1.8,2.5
		c0,1.3,0.8,4.3,2.4,9.1l0.2,0.6c1.8,5.1,3.1,8.2,3.9,9.2c0.8,1,1.8,1.3,3,0.9c1.1-0.4,1.7-1,1.8-2c0.1-1-0.2-2.6-1-4.9L317.2,435.8
		z"/>
	<path class="st2" d="M334.4,445 M336.7,443.7l-17.1-30.8l15.4-8.5l3.3,6l-8.8,4.9l3.1,5.7l8.1-4.5l3.4,6.2L336,427l3.7,6.7l8.8-4.9
		l3.5,6.3L336.7,443.7z"/>
	<path class="st2" d="M366.9,427.2 M361.2,416.5l5.6-4.1l0.6,0.8c1.1,1.6,2.1,2.5,2.9,2.9c0.8,0.4,1.6,0.3,2.4-0.3
		c0.6-0.5,1-1.1,1-1.8c0-0.8-0.3-1.6-0.9-2.4c-1-1.4-2.9-2-5.6-2c-0.5,0-0.8,0-1,0c-0.1,0-0.2,0-0.4,0c-3.8,0-6.3-0.3-7.6-0.7
		c-0.9-0.4-1.8-0.9-2.7-1.6c-0.9-0.7-1.7-1.6-2.4-2.6c-1.8-2.5-2.6-4.9-2.3-7.3c0.3-2.4,1.6-4.4,3.9-6.1c2.5-1.8,5-2.5,7.3-2.1
		c2.3,0.4,4.5,2,6.4,4.6c0.1,0.1,0.2,0.3,0.3,0.5c0.1,0.2,0.2,0.4,0.3,0.5l-5.5,4l-0.3-0.4c-0.9-1.2-1.8-2.1-2.6-2.4
		c-0.8-0.4-1.6-0.3-2.3,0.2c-0.6,0.4-0.9,1-0.9,1.7c0,0.7,0.2,1.4,0.8,2.2c0.9,1.2,2.8,1.8,5.8,1.7c0.5,0,1,0,1.3,0c0.2,0,0.6,0,1,0
		c3.2-0.1,5.5,0.2,6.8,0.8c0.8,0.4,1.7,0.9,2.5,1.6c0.8,0.7,1.6,1.5,2.3,2.5c2.1,2.9,3,5.5,2.8,8.1c-0.2,2.5-1.6,4.7-4.2,6.5
		c-2.7,1.9-5.2,2.6-7.6,2.1c-2.4-0.5-4.7-2.2-6.8-5.1c-0.1-0.2-0.3-0.4-0.4-0.6C361.7,417.3,361.5,417,361.2,416.5z"/>
	<path class="st2" d="M387.7,411.2 M390,390.4l5.4-5.1c0.2,0.1,0.3,0.3,0.5,0.5c0.2,0.2,0.4,0.4,0.8,0.8c2.9,3.1,4.5,6.1,4.6,8.8
		c0.2,2.7-1.1,5.3-3.7,7.7c-1.5,1.4-3.1,2.4-4.7,2.9c-1.6,0.5-3.3,0.4-5-0.1c-1.2-0.4-2.6-1.2-4.1-2.4c-1.5-1.2-3.8-3.4-6.6-6.5
		c-2.9-3.1-4.9-5.5-6-7.1c-1.1-1.6-1.8-3.1-2.1-4.3c-0.4-1.7-0.3-3.4,0.3-5c0.6-1.6,1.6-3.1,3.1-4.5c2.6-2.4,5.3-3.4,8-3.1
		c2.8,0.4,5.6,2.1,8.5,5.2l0.2,0.3l-5.4,5c-1.7-1.7-3-2.8-4-3.2c-1-0.4-1.9-0.2-2.7,0.6c-0.9,0.8-1.1,1.8-0.6,3
		c0.5,1.2,2.4,3.6,5.9,7.3l0.5,0.5c3.7,4,6.2,6.3,7.3,6.9c1.2,0.6,2.2,0.5,3.1-0.4c0.8-0.8,1.1-1.6,0.8-2.6c-0.3-1-1.2-2.3-2.9-4.1
		L390,390.4z"/>
	<path class="st2" d="M408.6,391.1 M410.3,389l-27.8-21.7l4.7-6l10.5,8.2l3.7-4.8l-10.5-8.2l4.6-5.8l27.8,21.7l-4.6,5.8l-11.5-9
		l-3.7,4.8l11.5,9L410.3,389z"/>
	<path class="st2" d="M426.7,367.6 M428,365.3l-30.8-17.1l8.5-15.4l6,3.3l-4.9,8.8l5.7,3.1l4.5-8.1l6.2,3.4l-4.5,8.1l6.7,3.7
		l4.9-8.8l6.3,3.5L428,365.3z"/>
	<path class="st2" d="M439.5,345.1 M440.5,342.7L407.6,330l3.8-9.9l15,2.7c0.1,0,1,0.2,2.8,0.7c1.8,0.4,3.5,0.9,5.3,1.3
		c-1.2-0.7-2.7-1.5-4.5-2.4c-1.8-1-2.8-1.5-2.9-1.6l-12.9-8l3.8-9.8l32.9,12.6l-2.6,6.7l-25.2-10.4l23.6,14.6l-2.1,5.4l-27.3-5
		L443,336L440.5,342.7z"/>
	<path class="st2" d="M452.3,309.5 M452.9,306.9l-34.3-7.9l4-17.2l6.7,1.5l-2.3,9.8l6.3,1.5l2.1-9.1l6.9,1.6l-2.1,9.1l7.5,1.7
		l2.3-9.8l7,1.6L452.9,306.9z"/>
	<circle class="st3" cx="255.7" cy="256.5" r="150.1"/>
	<path class="st4" d="M263,123.4c31.8,1.7,60.6,14.6,82.6,34.7l-32.3,32.3c-1.8-0.6-3.8-1-5.8-1c-9.7,0-17.5,7.8-17.5,17.5
		c0,2,0.4,4,1,5.8l-14,14c-4.2-2.8-8.9-4.8-14-5.8v-13.3c5.9-2.8,9.9-8.8,9.9-15.8c0-7-4.1-13-9.9-15.8V123.4L263,123.4z
		 M356.2,168.9L324,201.1c0.6,1.8,1,3.8,1,5.8c0,9.7-7.9,17.5-17.5,17.5c-2,0-4-0.4-5.8-1l-14,14c2.7,4.2,4.7,8.9,5.6,14h14.5
		c2.9-5.5,8.8-9.3,15.5-9.3c6.7,0,12.5,3.8,15.5,9.3h50.1C387.7,219.9,375.6,191.2,356.2,168.9L356.2,168.9z M388.6,266.6
		c-2.3,30.8-15.1,58.7-34.8,80.1l-32.3-32.3c0.6-1.8,1-3.8,1-5.8c0-9.7-7.8-17.5-17.5-17.5c-2,0-4,0.3-5.8,1l-11.9-11.9
		c2.8-4,4.8-8.6,5.9-13.5h14.1c2.7,6.2,8.9,10.6,16.1,10.6c7.2,0,13.4-4.4,16.1-10.6H388.6L388.6,266.6z M343,357.2l-32.2-32.2
		c-1.8,0.6-3.8,1-5.8,1c-9.7,0-17.5-7.8-17.5-17.5c0-2.1,0.4-4,1-5.8l-12.1-12.1c-4,2.6-8.5,4.4-13.4,5.3v19c1.9,0.8,3.6,2,5.1,3.6
		c6.8,6.8,6.8,17.9,0,24.8c-1.5,1.5-3.3,2.7-5.1,3.6v42.6C293.5,387.9,321.3,376,343,357.2L343,357.2z M247.9,389.5
		c-30.4-1.8-58.1-13.7-79.7-32.6l32.3-32.3c1.6,0.5,3.2,0.7,4.9,0.7c9.7,0,17.5-7.9,17.5-17.5c0-1.7-0.2-3.4-0.7-4.9l12.5-12.5
		c3.9,2.6,8.3,4.5,13.1,5.5v19.5c-1.6,0.8-3.2,1.9-4.5,3.3c-6.8,6.8-6.8,17.9,0,24.8c1.4,1.4,2.9,2.4,4.5,3.3V389.5L247.9,389.5z
		 M157.4,346.4l31.9-31.9c-0.9-2.1-1.3-4.3-1.3-6.7c0-9.7,7.8-17.5,17.5-17.5c2.4,0,4.6,0.5,6.7,1.3l11.9-11.9
		c-2.6-3.9-4.6-8.4-5.6-13.1h-21.8c-0.8,1.8-2,3.4-3.4,4.8c-6.8,6.8-17.9,6.8-24.8,0c-1.5-1.5-2.6-3.1-3.4-4.8h-42.2
		C125.2,297.2,137.8,325,157.4,346.4L157.4,346.4z M122.6,251.4c1.2-31.4,13.2-60,32.4-82.2l35.5,35.5c-0.8,2-1.3,4.2-1.3,6.6
		c0,9.7,7.8,17.5,17.5,17.5c2.3,0,4.5-0.5,6.6-1.3l10.3,10.3c-2.6,4.1-4.5,8.6-5.4,13.6h-21.6c-0.8-1.7-2-3.4-3.4-4.8
		c-6.8-6.8-17.9-6.8-24.8,0c-1.4,1.4-2.6,3.1-3.4,4.8H122.6L122.6,251.4z M165.6,158.4l36.2,36.2c1.6-0.5,3.3-0.7,5.1-0.7
		c9.7,0,17.5,7.8,17.5,17.5c0,1.8-0.3,3.5-0.7,5.1l10.6,10.6c4.1-2.8,8.7-4.8,13.7-5.9v-13.4c-5.9-2.8-10-8.8-10-15.8
		s4.1-13,10-15.8v-52.6C216.2,125.3,187.5,138.2,165.6,158.4z"/>
</g>
</svg>
